<?xml version="1.0" encoding="UTF-8" standalone="no"?>
<svg
   viewBox="0 0 192.04601 192.04601"
   version="1.1"
   id="svg1"
   sodipodi:docname="gitlab-logo-600.svg"
   width="192.04601"
   height="192.04601"
   inkscape:version="1.3 (0e150ed6c4, 2023-07-21)"
   xmlns:inkscape="http://www.inkscape.org/namespaces/inkscape"
   xmlns:sodipodi="http://sodipodi.sourceforge.net/DTD/sodipodi-0.dtd"
   xmlns="http://www.w3.org/2000/svg"
   xmlns:svg="http://www.w3.org/2000/svg">
  <sodipodi:namedview
     id="namedview1"
     pagecolor="#505050"
     bordercolor="#eeeeee"
     borderopacity="1"
     inkscape:showpageshadow="0"
     inkscape:pageopacity="0"
     inkscape:pagecheckerboard="0"
     inkscape:deskcolor="#505050"
     inkscape:zoom="1.5221404"
     inkscape:cx="71.938174"
     inkscape:cy="184.60846"
     inkscape:window-width="1920"
     inkscape:window-height="1022"
     inkscape:window-x="1920"
     inkscape:window-y="0"
     inkscape:window-maximized="1"
     inkscape:current-layer="LOGO" />
  <defs
     id="defs1">
    <style
       id="style1">.cls-1{fill:#171321;}</style>
  </defs>
  <g
     id="LOGO"
     transform="translate(-93.973245,-93.517263)">
    <path
       class="cls-1"
       d="m 282.83,170.73 -0.27,-0.69 -26.14,-68.22 a 6.81,6.81 0 0 0 -2.69,-3.24 7,7 0 0 0 -8,0.43 7,7 0 0 0 -2.32,3.52 l -17.65,54 h -71.47 l -17.65,-54 a 6.86,6.86 0 0 0 -2.32,-3.53 7,7 0 0 0 -8,-0.43 6.87,6.87 0 0 0 -2.69,3.24 L 97.44,170 l -0.26,0.69 a 48.54,48.54 0 0 0 16.1,56.1 l 0.09,0.07 0.24,0.17 39.82,29.82 19.7,14.91 12,9.06 a 8.07,8.07 0 0 0 9.76,0 l 12,-9.06 19.7,-14.91 40.06,-30 0.1,-0.08 a 48.56,48.56 0 0 0 16.08,-56.04 z"
       id="path1"
       style="fill:#ffffff;fill-opacity:1" />
  </g>
</svg>
