<?xml version="1.0" encoding="UTF-8" standalone="no"?>
<!-- Created with Inkscape (http://www.inkscape.org/) -->

<svg
   width="32.668251mm"
   height="28.535469mm"
   viewBox="0 0 32.668251 28.535469"
   version="1.1"
   id="svg1"
   inkscape:version="1.3 (0e150ed6c4, 2023-07-21)"
   sodipodi:docname="alien.svg"
   xmlns:inkscape="http://www.inkscape.org/namespaces/inkscape"
   xmlns:sodipodi="http://sodipodi.sourceforge.net/DTD/sodipodi-0.dtd"
   xmlns="http://www.w3.org/2000/svg"
   xmlns:svg="http://www.w3.org/2000/svg">
  <sodipodi:namedview
     id="namedview1"
     pagecolor="#505050"
     bordercolor="#eeeeee"
     borderopacity="1"
     inkscape:showpageshadow="0"
     inkscape:pageopacity="0"
     inkscape:pagecheckerboard="0"
     inkscape:deskcolor="#505050"
     inkscape:document-units="mm"
     inkscape:zoom="3.0217733"
     inkscape:cx="44.179357"
     inkscape:cy="11.582603"
     inkscape:window-width="1920"
     inkscape:window-height="1022"
     inkscape:window-x="1920"
     inkscape:window-y="0"
     inkscape:window-maximized="1"
     inkscape:current-layer="layer1" />
  <defs
     id="defs1" />
  <g
     inkscape:label="Layer 1"
     inkscape:groupmode="layer"
     id="layer1"
     transform="translate(-88.180629,-133.1334)">
    <path
       style="fill:#33c198;fill-opacity:1;stroke-width:1.7;stroke-linecap:round"
       d="m 103.37208,140.82171 2.36201,-0.065 1.14849,1.8636 0.13002,2.92541 -1.27851,2.18865 -0.065,1.06182 -1.21351,0.0217 -0.17336,-0.97514 -1.79858,-2.10197 -0.13002,-3.25046 z"
       id="path5" />
    <path
       style="fill:#999999;fill-opacity:0.278307;stroke-width:1.7;stroke-linecap:round"
       d="m 92.325451,146.98742 2.220719,-10.05396 6.74204,-3.80006 h 5.20976 l 6.68074,3.55489 2.58956,10.28927 -11.90584,4.11418 z"
       id="path3"
       sodipodi:nodetypes="cccccccc" />
    <path
       style="fill:#213730;fill-opacity:1;stroke-width:1.7;stroke-linecap:round"
       d="m 89.038709,159.89142 -0.85808,-5.39363 1.593577,-5.02589 2.574226,-2.57423 6.129126,1.71616 10.848562,-0.0613 6.37429,-1.83873 3.49361,2.39035 1.65486,5.02589 -2.20649,5.88396 -2.20648,1.65487 0.0613,-2.69682 -0.24517,-3.73877 -1.53228,-2.88069 -0.85807,1.65487 -9.86791,0.91937 -9.684026,-0.91937 -0.919369,-1.71616 -0.980654,2.94198 -0.183872,4.41297 -0.245171,1.83874 z"
       id="path1"
       sodipodi:nodetypes="cccccccccccccccccccccc" />
    <path
       style="fill:#548f7b;fill-opacity:1;stroke-width:1.7;stroke-linecap:round"
       d="m 94.861381,154.00746 18.755129,-0.12259 -0.49033,3.18715 -4.78072,1.34841 -8.396906,0.12258 -4.47426,-1.04195 z"
       id="path2" />
    <path
       style="fill:#33c198;fill-opacity:1;stroke-width:1.7;stroke-linecap:round"
       d="m 97.380702,154.71573 1.040148,0.4334 -0.130019,1.2135 -1.148498,0.39006 -1.040145,-0.58509 0.108346,-1.14849 z"
       id="path4" />
    <path
       style="fill:#33c198;fill-opacity:1;stroke-width:1.7;stroke-linecap:round"
       d="m 101.6136,155.24687 1.04015,0.4334 -0.13002,1.2135 -1.1485,0.39006 -1.04014,-0.58509 0.10835,-1.14849 z"
       id="path4-5" />
    <path
       style="fill:#33c198;fill-opacity:1;stroke-width:1.7;stroke-linecap:round"
       d="m 106.58433,155.26035 -1.04015,0.4334 0.13002,1.2135 1.1485,0.39006 1.04014,-0.58509 -0.10835,-1.14849 z"
       id="path4-5-2" />
    <path
       style="fill:#33c198;fill-opacity:1;stroke-width:1.7;stroke-linecap:round"
       d="m 110.60977,154.63866 -1.04015,0.4334 0.13002,1.2135 1.1485,0.39006 1.04014,-0.58509 -0.10835,-1.14849 z"
       id="path4-5-2-7" />
  </g>
</svg>
