<?xml version="1.0" encoding="UTF-8" standalone="no"?>
<!-- Created with Inkscape (http://www.inkscape.org/) -->

<svg
   width="32.668251mm"
   height="28.535469mm"
   viewBox="0 0 32.668251 28.535469"
   version="1.1"
   id="svg1"
   inkscape:version="1.3 (0e150ed6c4, 2023-07-21)"
   sodipodi:docname="alien.svg"
   xmlns:inkscape="http://www.inkscape.org/namespaces/inkscape"
   xmlns:sodipodi="http://sodipodi.sourceforge.net/DTD/sodipodi-0.dtd"
   xmlns="http://www.w3.org/2000/svg"
   xmlns:svg="http://www.w3.org/2000/svg">
  <sodipodi:namedview
     id="namedview1"
     pagecolor="#505050"
     bordercolor="#eeeeee"
     borderopacity="1"
     inkscape:showpageshadow="0"
     inkscape:pageopacity="0"
     inkscape:pagecheckerboard="0"
     inkscape:deskcolor="#505050"
     inkscape:document-units="mm"
     inkscape:zoom="3.0217733"
     inkscape:cx="-40.53911"
     inkscape:cy="-10.92074"
     inkscape:window-width="1920"
     inkscape:window-height="1022"
     inkscape:window-x="1920"
     inkscape:window-y="0"
     inkscape:window-maximized="1"
     inkscape:current-layer="layer1" />
  <defs
     id="defs1" />
  <g
     inkscape:label="Layer 1"
     inkscape:groupmode="layer"
     id="layer1"
     transform="translate(-88.180629,-133.1334)">
    <path
       style="fill:#33c198;fill-opacity:1;stroke-width:1.7;stroke-linecap:round"
       d="m 105.73409,147.73437 -0.065,1.06182 -1.21351,0.0217 -0.17336,-0.97514 c 0,0 -0.56498,-0.20993 -0.97624,-0.94311 -0.99778,-1.77879 -2.17302,-6.33525 1.48615,-6.38771 3.66188,-0.0525 2.94351,4.55915 1.96408,6.34008 -0.40267,0.7322 -1.02212,0.88236 -1.02212,0.88236 z"
       id="path5"
       sodipodi:nodetypes="ccccsssc" />
    <path
       style="fill:#999999;fill-opacity:0.278307;stroke-width:1.7;stroke-linecap:round"
       d="m 92.325446,146.98742 c 0,0 1.79924,-13.52054 11.392524,-13.64231 9.59329,-0.12176 12.0503,13.63245 12.0503,13.63245 l -11.90584,4.11418 z"
       id="path3"
       sodipodi:nodetypes="czccc" />
    <path
       style="fill:#548f7b;fill-opacity:1;stroke-width:1.7;stroke-linecap:round"
       d="m 94.861381,154.00746 18.755129,-0.12259 -0.49033,3.18715 c -7.37462,1.68084 -9.88302,1.76217 -17.651886,0.42904 z"
       id="path2"
       sodipodi:nodetypes="ccccc" />
    <path
       style="fill:#213730;fill-opacity:1;stroke-width:1.7;stroke-linecap:round"
       d="m 92.348432,146.89767 6.129126,1.71616 10.848562,-0.0613 6.37429,-1.83873 c 10.54195,6.60318 1.04912,14.71986 0.7355,14.95507 -0.38499,-3.21237 -0.0123,-6.50289 -1.71615,-9.31628 l -0.85807,1.65487 c 0,0 -3.52374,0.69346 -9.39117,0.70267 -5.867433,0.009 -10.160766,-0.70267 -10.160766,-0.70267 l -0.919369,-1.71616 c -1.371532,2.90564 -0.995917,6.09041 -1.409697,9.19369 0,0 -3.843439,-4.12283 -3.515233,-7.86598 0.328207,-3.74316 3.882977,-6.72134 3.882977,-6.72134 z"
       id="path1"
       sodipodi:nodetypes="ccccccczccczc" />
    <path
       style="fill:#000000;fill-opacity:1;stroke-width:4.99999;stroke-linecap:round;stroke-linejoin:round"
       d="m 104.2652,144.62113 c 0,0 0.21452,-0.22984 0.52098,-0.1379 0.32178,0.0919 0.47501,0.38307 0.47501,0.38307 0,0 -0.29114,0.16855 -0.58227,0.0766 -0.30645,-0.10722 -0.41372,-0.32178 -0.41372,-0.32178 z"
       id="path6"
       sodipodi:nodetypes="cccccc" />
    <path
       style="fill:#000000;fill-opacity:1;stroke-width:4.99999;stroke-linecap:round;stroke-linejoin:round"
       d="m 107.00171,144.47909 c 0,0 -0.21452,-0.22984 -0.52098,-0.1379 -0.32178,0.0919 -0.47501,0.38307 -0.47501,0.38307 0,0 0.29114,0.16855 0.58227,0.0766 0.30645,-0.10722 0.41372,-0.32178 0.41372,-0.32178 z"
       id="path6-5"
       sodipodi:nodetypes="cccccc" />
    <circle
       style="fill:#6da994;fill-opacity:1;stroke-width:4.99999;stroke-linecap:round;stroke-linejoin:round"
       id="path7"
       cx="97.325264"
       cy="155.98567"
       r="1.0401466" />
    <circle
       style="fill:#6da994;fill-opacity:1;stroke-width:4.99999;stroke-linecap:round;stroke-linejoin:round"
       id="path7-2"
       cx="102.20809"
       cy="156.61069"
       r="1.0401466" />
    <ellipse
       style="fill:#6da994;fill-opacity:1;stroke-width:4.84122;stroke-linecap:round;stroke-linejoin:round"
       id="path7-7"
       cx="107.98936"
       cy="156.38947"
       rx="0.97513813"
       ry="1.0401466" />
    <ellipse
       style="fill:#6da994;fill-opacity:1;stroke-width:4.56435;stroke-linecap:round;stroke-linejoin:round"
       id="path7-6"
       cx="112.47017"
       cy="155.65721"
       rx="0.86678946"
       ry="1.0401466" />
  </g>
</svg>
