<?xml version="1.0" encoding="UTF-8" standalone="no"?>
<!-- Created with Inkscape (http://www.inkscape.org/) -->

<svg
   width="152.03906mm"
   height="93.536156mm"
   viewBox="0 0 152.03906 93.536156"
   version="1.1"
   id="svg1"
   xml:space="preserve"
   inkscape:version="1.3 (0e150ed6c4, 2023-07-21)"
   sodipodi:docname="emailwings.svg"
   xmlns:inkscape="http://www.inkscape.org/namespaces/inkscape"
   xmlns:sodipodi="http://sodipodi.sourceforge.net/DTD/sodipodi-0.dtd"
   xmlns="http://www.w3.org/2000/svg"
   xmlns:svg="http://www.w3.org/2000/svg"><sodipodi:namedview
     id="namedview1"
     pagecolor="#505050"
     bordercolor="#eeeeee"
     borderopacity="1"
     inkscape:showpageshadow="0"
     inkscape:pageopacity="0"
     inkscape:pagecheckerboard="0"
     inkscape:deskcolor="#505050"
     inkscape:document-units="mm"
     inkscape:zoom="0.72871773"
     inkscape:cx="-221.62216"
     inkscape:cy="198.97965"
     inkscape:window-width="1920"
     inkscape:window-height="1022"
     inkscape:window-x="1920"
     inkscape:window-y="0"
     inkscape:window-maximized="1"
     inkscape:current-layer="layer1" /><defs
     id="defs1" /><g
     inkscape:label="Layer 1"
     inkscape:groupmode="layer"
     id="layer1"
     transform="translate(-4.3626531,-72.184973)"><path
       style="fill:#ffffff;fill-opacity:1;stroke:none;stroke-width:4.99999;stroke-linecap:round"
       d="m 45.657438,96.960697 24.39901,31.261243 42.189972,-3.43111 -29.100922,7.37054 9.02257,25.28857 -14.48693,-24.14487 -10.54749,1.52494 -5.97266,-9.14963 -27.19475,5.59144 24.5261,-9.9121 z"
       id="path1"
       sodipodi:nodetypes="ccccccccccc" /><path
       style="fill:#65f8b0;fill-opacity:1;stroke:none;stroke-width:4.99999;stroke-linecap:round;stroke-linejoin:round;stroke-dasharray:none;stroke-opacity:1"
       d="m 4.7818996,72.184973 c 0,0 5.7508904,1.976874 14.6468304,3.863891 8.895933,1.887013 18.510729,2.875449 22.105046,9.345214 3.594318,6.46977 2.785602,12.310539 1.797156,14.017829 -0.988446,1.707303 -2.516031,3.684183 -3.055173,1.258013 C 39.736618,98.243757 38.83804,92.223278 36.142304,90.066688 33.446565,87.910098 27.246366,85.843368 20.05774,83.507068 12.8691,81.17076 4.7818996,72.184973 4.7818996,72.184973 Z"
       id="path2" /><path
       style="fill:#65f8b0;fill-opacity:1;stroke:none;stroke-width:4.99999;stroke-linecap:round;stroke-linejoin:round;stroke-dasharray:none;stroke-opacity:1"
       d="m 156.40171,134.01611 c 0,0 -5.56687,-2.4476 -13.38398,-7.09424 -7.81712,-4.64663 -15.55307,-10.44114 -22.58228,-8.12445 -7.02923,2.3167 -10.39622,7.15737 -10.82775,9.08236 -0.43154,1.92502 -0.64971,4.41379 1.39194,2.99653 2.04165,-1.41724 6.78515,-5.23206 10.22879,-4.98858 3.44363,0.24348 9.40162,2.92976 16.26881,6.08832 6.86719,3.15856 18.90447,2.04006 18.90447,2.04006 z"
       id="path2-6" /><rect
       style="fill:none;fill-opacity:1;stroke:#ffffff;stroke-width:5;stroke-linecap:round;stroke-linejoin:round;stroke-dasharray:none;stroke-opacity:1"
       id="rect1"
       width="71.090729"
       height="47.360867"
       x="80.454407"
       y="63.920609"
       transform="rotate(23.951806)" /><path
       style="fill:#65f8b0;fill-opacity:1;stroke:none;stroke-width:4.99999;stroke-linecap:round;stroke-linejoin:round;stroke-dasharray:none;stroke-opacity:1"
       d="m 4.7818996,72.364689 c 0,0 3.41461,9.435076 7.0987704,12.580099 3.68417,3.14503 8.5365,6.55963 8.5365,6.55963 0,0 -2.87545,0.89858 -4.40304,0.53915 -1.52759,-0.35944 -4.85233,-2.06673 -4.85233,-2.06673 0,0 3.33836,5.307579 6.94539,7.896589 2.55174,1.83156 5.54486,2.706643 5.54486,2.706643 0,0 -1.168149,0.89858 -2.246448,0.89858 -1.078292,0 -2.426162,0.17971 -2.426162,0.17971 0,0 3.684163,3.14503 7.637917,3.86389 3.953753,0.71886 6.110332,0.44929 6.110332,0.44929 0,0 -1.976861,2.60588 -6.829192,2.3363 -4.852331,-0.26957 -8.356797,-3.86388 -9.165507,-4.58275 -0.80871,-0.71886 -2.87545,-4.672613 -2.87545,-4.672613 0,0 -3.01383,-2.90775 -4.4447704,-6.406229 -1.48409,-3.62842 -1.30613,-5.72458 -1.30613,-5.72458 0,0 -2.87546,-3.59432 -3.50446,-7.997353 -0.62901,-4.403037 0.17972,-6.559626 0.17972,-6.559626 z"
       id="path3"
       sodipodi:nodetypes="cscscscscscsscscsc" /><path
       style="fill:#65f8b0;fill-opacity:1;stroke:none;stroke-width:4.99999;stroke-linecap:round;stroke-linejoin:round;stroke-dasharray:none;stroke-opacity:1"
       d="m 156.27983,134.14818 c 0,0 -8.90827,4.61767 -13.74863,4.43019 -4.84037,-0.18748 -10.722,-0.96912 -10.722,-0.96912 0,0 1.50364,2.6105 2.86998,3.3824 1.36635,0.7719 4.96749,1.77215 4.96749,1.77215 0,0 -6.05291,1.63624 -10.45949,1.09248 -3.11738,-0.38467 -5.91041,-1.77158 -5.91041,-1.77158 0,0 0.249,1.45259 1.04141,2.18391 0.7924,0.7313 1.66102,1.77752 1.66102,1.77752 0,0 -4.84036,-0.18748 -8.23338,-2.34071 -3.39302,-2.15322 -4.79499,-3.81394 -4.79499,-3.81394 0,0 -0.31461,3.25571 3.43403,6.34852 3.74864,3.09282 8.76166,2.82825 9.84349,2.84846 1.08184,0.0202 5.2821,-1.48357 5.2821,-1.48357 0,0 4.18683,-0.0928 7.61109,-1.69321 3.55145,-1.65987 4.84232,-3.32097 4.84232,-3.32097 0,0 4.55079,-0.69117 7.99922,-3.50021 3.44843,-2.80904 4.31675,-4.94232 4.31675,-4.94232 z"
       id="path3-2"
       sodipodi:nodetypes="cscscscscscsscscsc" /></g></svg>
